<svg xmlns="http://www.w3.org/2000/svg" width="5.174mm" height="5.174mm" viewBox="0 0 14.668 14.668">
  <g>
    <circle cx="7.334" cy="7.334" r="7.334" fill="#fec471"/>
    <g>
      <path d="M4.72,6.082a.963.963,0,0,0-.23-.61A4.108,4.108,0,0,1,5.929,6.5l0,0a.08.08,0,0,0,.107.009A.082.082,0,0,0,6.055,6.4a4.067,4.067,0,0,0-.917-.987,2.463,2.463,0,0,0-1.3-.509,2.055,2.055,0,0,0-1.372.387A1.678,1.678,0,0,0,1.788,6.5a.082.082,0,0,0,.044.072.075.075,0,0,0,.1-.037A2.344,2.344,0,0,1,2.948,5.526a.959.959,0,0,0-.194.556.983.983,0,0,0,1.966,0Z" fill="#302e2f"/>
      <path d="M7.334,9.929a22.347,22.347,0,0,1-2.88-.177c-.139-.016-.153.106-.117.171a3.422,3.422,0,0,0,6.037-.081.071.071,0,0,0-.079-.1C9.861,9.779,8.486,9.9,7.334,9.929Z" fill="#302e2f"/>
      <path d="M12.179,5.288A2.057,2.057,0,0,0,10.806,4.9a2.459,2.459,0,0,0-1.3.509A4.051,4.051,0,0,0,8.59,6.4a.081.081,0,0,0,.123.1l0,0A4.518,4.518,0,0,1,9.863,5.61a.956.956,0,0,0-.138.472.984.984,0,1,0,1.678-.7,2.256,2.256,0,0,1,1.31,1.15.082.082,0,0,0,.072.044.075.075,0,0,0,.072-.079A1.677,1.677,0,0,0,12.179,5.288Z" fill="#302e2f"/>
      <path d="M4.618,4.168a3.576,3.576,0,0,1,.588.244c.2.074.329.276.645.2L5.907,4.6l.018-.005A.315.315,0,0,0,6.133,4.2c-.1-.311-.357-.4-.595-.5a4.265,4.265,0,0,0-.747-.244A3.238,3.238,0,0,0,3.22,3.51,2.855,2.855,0,0,0,1.2,5.631a.1.1,0,0,0,.193.056l0-.008A2.652,2.652,0,0,1,3.368,4.11,2.723,2.723,0,0,1,4.618,4.168Z" fill="#302e2f"/>
      <path d="M11.456,3.451a3.146,3.146,0,0,0-1.583-.1,3.936,3.936,0,0,0-.757.236c-.242.1-.5.187-.6.5l-.005.021a.314.314,0,0,0,.231.379l.056.013c.317.077.441-.125.648-.2a3.205,3.205,0,0,1,.592-.236,2.6,2.6,0,0,1,1.253-.025,2.794,2.794,0,0,1,1.966,1.633l0,.009a.1.1,0,0,0,.193-.057A2.973,2.973,0,0,0,11.456,3.451Z" fill="#302e2f"/>
    </g>
  </g>
</svg>
