<svg xmlns="http://www.w3.org/2000/svg" width="11.759mm" height="14.86mm" viewBox="0 0 33.334 42.122">
  <g>
    <path d="M27.533,4.976a35.463,35.463,0,0,0-9.568-3.709S1.726,3.319,1.726,15.754,16.078,40.825,16.078,40.825,28.258,30.238,30.43,23.65,31.878,7.587,27.533,4.976ZM17.058,22.97A7.174,7.174,0,1,1,24.34,15.8a7.173,7.173,0,0,1-7.282,7.172Z" fill="#ef4d32"/>
    <path d="M16.671,23.357a8.124,8.124,0,0,0,8.334-7.9,8.124,8.124,0,0,0-8.334-7.9,8.124,8.124,0,0,0-8.334,7.9A8.134,8.134,0,0,0,16.671,23.357Zm0-14.478a6.77,6.77,0,0,1,6.945,6.581,6.77,6.77,0,0,1-6.945,6.581A6.77,6.77,0,0,1,9.726,15.46a6.777,6.777,0,0,1,6.945-6.579Z"/>
    <path d="M16.668,0A17.11,17.11,0,0,0,4.87,4.615,15.348,15.348,0,0,0,0,15.8c0,9.214,8.335,18.639,14.413,25.263a3.457,3.457,0,0,0,2.2,1.059h.107a3.467,3.467,0,0,0,2.2-1.059C25,34.439,33.334,25.014,33.334,15.8A15.35,15.35,0,0,0,28.468,4.614,17.114,17.114,0,0,0,16.668,0Zm.162,39.332a1.48,1.48,0,0,1-.187.129,1.419,1.419,0,0,0-.18-.175C11.372,33.735,2.777,24.367,2.777,15.8,2.777,8.526,9,2.633,16.668,2.633S30.559,8.526,30.559,15.8c0,8.571-8.592,17.94-13.728,23.536Z"/>
  </g>
</svg>
